<svg width="900" height="274" viewBox="0 0 900 274" fill="none" xmlns="http://www.w3.org/2000/svg">
<path d="M428.92 143.35C432.127 144.043 433.73 145.647 433.73 148.16C430.437 154.14 426.407 158.993 421.64 162.72C416.873 166.447 412.367 168.917 408.12 170.13C403.873 171.343 399.497 171.95 394.99 171.95C384.763 171.95 376.183 168.05 369.25 160.25C362.317 152.45 358.85 141.097 358.85 126.19C358.85 109.55 363.14 95.38 371.72 83.68C375.967 78.0467 381.383 73.5833 387.97 70.29C394.643 66.91 402.313 65.22 410.98 65.22C419.733 65.22 426.363 67.56 430.87 72.24C435.463 76.8333 437.76 82.2933 437.76 88.62C437.76 94.86 436.027 99.9733 432.56 103.96C429.093 107.86 424.587 109.81 419.04 109.81C417.133 109.81 414.923 109.463 412.41 108.77C414.23 106.517 415.833 103.31 417.22 99.15C418.607 94.99 419.3 91.0467 419.3 87.32C419.3 83.5933 418.433 80.56 416.7 78.22C414.967 75.88 412.237 74.71 408.51 74.71C402.79 74.71 397.633 77.3533 393.04 82.64C388.447 87.9267 385.023 94.4267 382.77 102.14C380.517 109.853 379.39 117.827 379.39 126.06C379.39 137.153 381.557 145.56 385.89 151.28C390.223 157 395.77 159.86 402.53 159.86C406.777 159.86 411.197 158.43 415.79 155.57C420.383 152.71 424.76 148.637 428.92 143.35ZM466.428 145.43C466.428 149.503 467.165 152.84 468.638 155.44C470.198 157.953 472.365 159.21 475.138 159.21C479.211 159.21 483.068 156.827 486.708 152.06C490.435 147.293 493.381 141.183 495.548 133.73C497.801 126.277 498.928 119.213 498.928 112.54C498.928 105.78 498.668 100.32 498.148 96.16C500.748 95.9867 502.568 95.9 503.608 95.9C508.028 95.9 511.365 96.7233 513.618 98.37C515.871 100.017 516.998 102.963 516.998 107.21C516.998 108.857 515.958 115.573 513.878 127.36C511.798 139.06 510.758 148.463 510.758 155.57C510.758 162.59 512.101 168.83 514.788 174.29C508.288 173.163 503.521 170.78 500.488 167.14C497.455 163.413 495.938 158.083 495.938 151.15C495.938 149.937 496.111 147.597 496.458 144.13C494.118 152.363 489.958 158.993 483.978 164.02C477.998 169.047 472.105 171.56 466.298 171.56C460.578 171.56 455.941 169.437 452.388 165.19C448.921 160.857 447.188 154.747 447.188 146.86C447.188 138.973 448.575 131.347 451.348 123.98C454.208 116.527 458.455 110.243 464.088 105.13C469.721 99.93 476.005 97.33 482.938 97.33C486.925 97.33 490.998 98.2833 495.158 100.19C486.405 103.31 479.428 109.463 474.228 118.65C469.028 127.75 466.428 136.677 466.428 145.43ZM552.978 127.75C556.098 116.483 559.824 108.207 564.158 102.92C568.578 97.5467 572.651 94.86 576.378 94.86C580.191 94.86 583.051 96.29 584.958 99.15C586.864 101.923 587.818 105.563 587.818 110.07C587.818 114.49 586.474 118.563 583.788 122.29C581.188 126.017 577.591 127.88 572.998 127.88C571.784 127.88 570.354 127.533 568.708 126.84C571.394 123.46 572.738 119.387 572.738 114.62C572.738 111.847 571.611 110.46 569.358 110.46C567.711 110.46 565.934 111.63 564.028 113.97C562.121 116.223 560.301 119.387 558.568 123.46C556.834 127.447 555.361 132.603 554.148 138.93C553.021 145.17 552.458 151.843 552.458 158.95C552.458 159.817 552.674 163.5 553.108 170C550.334 170.173 548.558 170.26 547.778 170.26C542.838 170.26 539.284 169.393 537.118 167.66C534.951 165.927 533.868 163.067 533.868 159.08C533.868 157.347 534.778 150.673 536.598 139.06C538.418 127.447 539.328 118.217 539.328 111.37C539.328 104.437 538.591 98.0667 537.118 92.26C543.444 94.2533 547.864 97.1133 550.378 100.84C552.891 104.48 554.148 108.77 554.148 113.71C554.148 118.563 553.758 123.243 552.978 127.75ZM631.873 104.87C626.24 104.87 621.213 108.683 616.793 116.31C612.373 123.85 610.163 131.39 610.163 138.93C610.163 154.703 614.237 162.59 622.383 162.59C628.19 162.59 632.913 158.82 636.553 151.28C640.193 143.653 642.013 135.117 642.013 125.67C642.013 111.803 638.633 104.87 631.873 104.87ZM620.823 93.17C621.777 93.17 622.643 93.4733 623.423 94.08C624.29 94.6 624.723 95.1633 624.723 95.77C615.97 101.837 610.727 110.287 608.993 121.12C610.813 116.267 613.023 112.063 615.623 108.51C618.31 104.957 621.083 102.27 623.943 100.45C629.403 97.07 634.733 95.38 639.933 95.38C645.133 95.38 649.553 97.9367 653.193 103.05C656.833 108.163 658.653 115.01 658.653 123.59C658.653 133.21 656.703 142.05 652.803 150.11C648.47 159.21 642.317 165.493 634.343 168.96C629.837 170.953 624.897 171.95 619.523 171.95C611.983 171.95 605.397 169.047 599.763 163.24C594.217 157.347 591.443 148.94 591.443 138.02C591.443 127.013 594.13 117.35 599.503 109.03C604.877 100.623 611.983 95.3367 620.823 93.17ZM676.228 166.75C675.188 165.017 674.538 163.37 674.278 161.81C674.018 160.163 673.888 157.65 673.888 154.27C673.888 150.89 675.318 137.587 678.178 114.36C681.124 91.1333 682.598 75.1867 682.598 66.52C682.598 57.8533 682.078 52.22 681.038 49.62C687.538 51.3533 691.958 53.9967 694.298 57.55C696.724 61.0167 697.938 65.9567 697.938 72.37C697.938 76.1833 696.681 88.5767 694.168 109.55C691.654 130.523 690.398 147.423 690.398 160.25C690.398 163.023 690.571 166.923 690.918 171.95C683.031 171.603 678.134 169.87 676.228 166.75ZM737.435 105.39C737.435 106.69 736.352 113.537 734.185 125.93C732.105 138.237 731.022 148.42 730.935 156.48C730.935 164.453 731.455 169.61 732.495 171.95C725.735 170.217 721.185 167.617 718.845 164.15C716.505 160.597 715.335 155.44 715.335 148.68C715.335 145.04 716.029 138.453 717.415 128.92C718.802 119.387 719.495 111.977 719.495 106.69C719.495 101.403 719.235 97.33 718.715 94.47C720.622 94.2967 722.399 94.21 724.045 94.21C729.072 94.21 732.539 95.0767 734.445 96.81C736.439 98.4567 737.435 101.317 737.435 105.39ZM739.385 82.77C736.959 83.1167 734.835 83.29 733.015 83.29C724.089 83.29 719.625 80.17 719.625 73.93C719.625 71.6767 720.275 68.6 721.575 64.7C724.002 64.3533 726.125 64.18 727.945 64.18C736.872 64.18 741.335 67.3 741.335 73.54C741.335 75.7933 740.685 78.87 739.385 82.77ZM804.033 94.99C809.146 94.99 812.786 96.5933 814.953 99.8C817.206 102.92 818.333 107.21 818.333 112.67C818.333 118.043 817.466 125.627 815.733 135.42C814.086 145.213 813.263 152.363 813.263 156.87C813.263 161.29 813.826 164.54 814.953 166.62C816.08 168.613 817.986 170.347 820.673 171.82C819.546 171.907 817.943 171.95 815.863 171.95C808.583 171.95 803.383 170.823 800.263 168.57C797.23 166.317 795.713 162.373 795.713 156.74C795.713 153.533 796.58 147.293 798.313 138.02C800.046 128.66 800.913 121.683 800.913 117.09C800.913 111.37 799.18 108.51 795.713 108.51C793.72 108.51 791.466 109.68 788.953 112.02C786.44 114.36 784.013 117.567 781.673 121.64C779.333 125.627 777.383 130.783 775.823 137.11C774.263 143.437 773.483 149.763 773.483 156.09C773.483 162.33 773.743 166.967 774.263 170C771.49 170.173 769.67 170.26 768.803 170.26C763.863 170.26 760.31 169.393 758.143 167.66C755.976 165.927 754.893 163.067 754.893 159.08C754.893 157.347 755.803 150.673 757.623 139.06C759.443 127.447 760.353 118.217 760.353 111.37C760.353 104.437 759.616 98.0667 758.143 92.26C764.47 94.2533 768.89 97.1133 771.403 100.84C773.916 104.48 775.173 108.683 775.173 113.45C775.173 118.13 774.653 123.59 773.613 129.83C776.473 120.123 780.98 111.89 787.133 105.13C793.286 98.37 798.92 94.99 804.033 94.99ZM865 138.02C860.84 138.02 856.767 137.543 852.78 136.59C852.693 137.457 852.65 138.8 852.65 140.62C852.65 147.813 853.993 153.23 856.68 156.87C859.367 160.51 862.573 162.33 866.3 162.33C870.027 162.33 873.58 161.203 876.96 158.95C880.34 156.697 883.287 153.577 885.8 149.59C888.92 150.283 890.48 151.887 890.48 154.4C882.853 166.1 873.017 171.95 860.97 171.95C853.69 171.95 847.32 169.177 841.86 163.63C836.4 157.997 833.67 150.197 833.67 140.23C833.67 132.777 835.1 125.713 837.96 119.04C840.82 112.28 845.37 106.603 851.61 102.01C857.85 97.33 864.74 94.99 872.28 94.99C879.907 94.99 885.497 96.7233 889.05 100.19C892.603 103.657 894.38 108.207 894.38 113.84C894.38 121.987 891.52 128.053 885.8 132.04C880.167 136.027 873.233 138.02 865 138.02ZM870.46 103.05C866.04 103.05 862.313 105.78 859.28 111.24C856.247 116.7 854.253 123.33 853.3 131.13H855.25C862.79 131.13 868.337 129.18 871.89 125.28C875.53 121.38 877.35 116.7 877.35 111.24C877.35 108.987 876.743 107.08 875.53 105.52C874.403 103.873 872.713 103.05 870.46 103.05Z" fill="#1A3968"/>
<path d="M411.15 221.6C409.95 222.067 409.017 222.3 408.35 222.3C406.35 222.3 405.233 222.017 405 221.45C401.667 212.883 399.467 207.367 398.4 204.9C398.3 205.8 398.033 207.883 397.6 211.15C396.7 217.55 396.25 222.867 396.25 227.1C396.25 228.133 396.317 229.517 396.45 231.25C394.117 231.25 392.533 230.983 391.7 230.45C390.9 229.883 390.5 229.1 390.5 228.1C390.5 227.767 391.05 223.233 392.15 214.5C393.283 205.767 393.85 199.683 393.85 196.25V196C392.883 194.433 391.867 193.15 390.8 192.15C392.033 191.283 393.517 190.85 395.25 190.85C397.45 190.85 399.15 191.883 400.35 193.95C401.55 195.983 403.9 201.6 407.4 210.8L409.7 216.7C409.9 216.367 410.2 215.917 410.6 215.35C418.733 203.317 422.917 195.15 423.15 190.85C423.15 190.883 423.55 190.933 424.35 191C425.15 191.033 426 191.2 426.9 191.5C427.833 191.767 428.5 192.2 428.9 192.8C429.333 193.367 429.6 193.933 429.7 194.5C429.8 195.033 429.85 195.967 429.85 197.3C429.85 198.6 429.3 203.017 428.2 210.55C427.1 218.083 426.55 223.367 426.55 226.4C426.55 229.4 426.783 231.45 427.25 232.55C424.417 231.817 422.483 230.85 421.45 229.65C420.417 228.417 419.9 226.717 419.9 224.55C419.9 223.283 420.233 220.167 420.9 215.2C421.6 210.233 422.083 206.267 422.35 203.3C421.017 205.6 419.117 208.75 416.65 212.75C414.217 216.75 412.75 219.133 412.25 219.9C411.75 220.633 411.383 221.2 411.15 221.6ZM447.888 218.7C446.288 218.7 444.721 218.517 443.188 218.15C443.155 218.483 443.138 219 443.138 219.7C443.138 222.467 443.655 224.55 444.688 225.95C445.721 227.35 446.955 228.05 448.388 228.05C449.821 228.05 451.188 227.617 452.488 226.75C453.788 225.883 454.921 224.683 455.888 223.15C457.088 223.417 457.688 224.033 457.688 225C454.755 229.5 450.971 231.75 446.338 231.75C443.538 231.75 441.088 230.683 438.988 228.55C436.888 226.383 435.838 223.383 435.838 219.55C435.838 216.683 436.388 213.967 437.488 211.4C438.588 208.8 440.338 206.617 442.738 204.85C445.138 203.05 447.788 202.15 450.688 202.15C453.621 202.15 455.771 202.817 457.138 204.15C458.505 205.483 459.188 207.233 459.188 209.4C459.188 212.533 458.088 214.867 455.888 216.4C453.721 217.933 451.055 218.7 447.888 218.7ZM449.988 205.25C448.288 205.25 446.855 206.3 445.688 208.4C444.521 210.5 443.755 213.05 443.388 216.05H444.138C447.038 216.05 449.171 215.3 450.538 213.8C451.938 212.3 452.638 210.5 452.638 208.4C452.638 207.533 452.405 206.8 451.938 206.2C451.505 205.567 450.855 205.25 449.988 205.25ZM445.288 198.4C446.188 196.367 447.621 194.267 449.588 192.1C451.555 189.9 453.471 188.417 455.338 187.65C457.338 188.917 458.388 190.7 458.488 193C456.388 193.567 454.321 194.533 452.288 195.9C450.288 197.233 448.655 198.617 447.388 200.05C446.855 199.95 446.388 199.75 445.988 199.45C445.588 199.117 445.355 198.767 445.288 198.4ZM470.516 220.9C470.516 224.867 471.716 226.85 474.116 226.85C475.383 226.85 476.616 226.167 477.816 224.8C479.016 223.433 479.983 221.6 480.716 219.3C481.483 217 482.133 214.55 482.666 211.95C483.233 209.317 483.65 206.533 483.916 203.6C484.383 197.933 484.616 193.517 484.616 190.35C484.616 187.15 484.483 184.75 484.216 183.15C486.616 183.683 488.3 184.817 489.266 186.55C490.233 188.283 490.716 190.467 490.716 193.1C490.716 195.733 490.15 200.633 489.016 207.8C487.916 214.967 487.366 220.2 487.366 223.5C487.366 226.8 487.516 229.6 487.816 231.9C485.45 231.267 483.816 230.133 482.916 228.5C482.05 226.833 481.616 224.75 481.616 222.25C480.583 225.117 479.033 227.383 476.966 229.05C474.9 230.717 472.766 231.55 470.566 231.55C468.366 231.55 466.566 230.717 465.166 229.05C463.8 227.35 463.116 224.867 463.116 221.6C463.116 216.433 464.533 212 467.366 208.3C470.2 204.567 473.55 202.7 477.416 202.7C478.516 202.7 480.25 202.967 482.616 203.5C480.55 204.033 478.7 204.967 477.066 206.3C475.466 207.6 474.216 209.1 473.316 210.8C471.45 214.167 470.516 217.533 470.516 220.9ZM504.977 206.15C504.977 206.65 504.56 209.283 503.727 214.05C502.927 218.783 502.51 222.7 502.477 225.8C502.477 228.867 502.677 230.85 503.077 231.75C500.477 231.083 498.727 230.083 497.827 228.75C496.927 227.383 496.477 225.4 496.477 222.8C496.477 221.4 496.744 218.867 497.277 215.2C497.81 211.533 498.077 208.683 498.077 206.65C498.077 204.617 497.977 203.05 497.777 201.95C498.51 201.883 499.194 201.85 499.827 201.85C501.76 201.85 503.094 202.183 503.827 202.85C504.594 203.483 504.977 204.583 504.977 206.15ZM505.727 197.45C504.794 197.583 503.977 197.65 503.277 197.65C499.844 197.65 498.127 196.45 498.127 194.05C498.127 193.183 498.377 192 498.877 190.5C499.81 190.367 500.627 190.3 501.327 190.3C504.76 190.3 506.477 191.5 506.477 193.9C506.477 194.767 506.227 195.95 505.727 197.45ZM517.841 219.7C517.841 225.267 519.475 228.05 522.741 228.05C524.008 228.05 525.291 227.617 526.591 226.75C527.891 225.883 529.025 224.683 529.991 223.15C531.191 223.417 531.791 224.033 531.791 225C530.391 227.433 528.675 229.167 526.641 230.2C524.608 231.233 522.575 231.75 520.541 231.75C517.808 231.75 515.475 230.75 513.541 228.75C511.641 226.717 510.691 223.783 510.691 219.95C510.691 215.05 512.041 210.867 514.741 207.4C517.441 203.9 521.091 202.15 525.691 202.15C528.258 202.15 530.191 202.783 531.491 204.05C532.791 205.283 533.441 206.767 533.441 208.5C533.441 210.2 532.908 211.683 531.841 212.95C530.808 214.217 529.475 214.85 527.841 214.85C527.041 214.85 526.241 214.683 525.441 214.35C525.941 213.783 526.408 212.9 526.841 211.7C527.275 210.467 527.491 209.333 527.491 208.3C527.491 206.267 526.608 205.25 524.841 205.25C522.775 205.25 521.091 206.767 519.791 209.8C518.491 212.833 517.841 216.133 517.841 219.7ZM544.738 221.55C544.738 223.117 545.021 224.4 545.588 225.4C546.188 226.367 547.021 226.85 548.088 226.85C549.654 226.85 551.138 225.933 552.538 224.1C553.971 222.267 555.104 219.917 555.938 217.05C556.804 214.183 557.238 211.467 557.238 208.9C557.238 206.3 557.138 204.2 556.938 202.6C557.938 202.533 558.638 202.5 559.038 202.5C560.738 202.5 562.021 202.817 562.888 203.45C563.754 204.083 564.188 205.217 564.188 206.85C564.188 207.483 563.788 210.067 562.987 214.6C562.188 219.1 561.788 222.717 561.788 225.45C561.788 228.15 562.304 230.55 563.338 232.65C560.838 232.217 559.004 231.3 557.838 229.9C556.671 228.467 556.088 226.417 556.088 223.75C556.088 223.283 556.154 222.383 556.288 221.05C555.388 224.217 553.788 226.767 551.488 228.7C549.188 230.633 546.921 231.6 544.688 231.6C542.488 231.6 540.704 230.783 539.338 229.15C538.004 227.483 537.338 225.133 537.338 222.1C537.338 219.067 537.871 216.133 538.938 213.3C540.038 210.433 541.671 208.017 543.838 206.05C546.004 204.05 548.421 203.05 551.088 203.05C552.621 203.05 554.188 203.417 555.788 204.15C552.421 205.35 549.738 207.717 547.738 211.25C545.738 214.75 544.738 218.183 544.738 221.55ZM600.78 231C600.513 231.1 599.846 231.233 598.78 231.4C597.713 231.6 596.73 231.7 595.83 231.7C594.963 231.7 594.463 231.45 594.33 230.95C593.73 228.883 592.83 224.85 591.63 218.85C590.43 212.817 589.213 207.35 587.98 202.45C586.78 197.55 585.613 194.3 584.48 192.7C586.313 191.833 587.763 191.4 588.83 191.4C589.896 191.4 590.663 191.517 591.13 191.75C591.596 191.983 592.046 192.5 592.48 193.3C592.946 194.1 593.346 195.167 593.68 196.5C594.18 198.5 594.796 201.467 595.53 205.4C596.263 209.333 596.68 211.5 596.78 211.9C597.946 217.833 598.713 221.9 599.08 224.1C601.246 219.467 603.646 213.317 606.28 205.65C608.913 197.95 610.23 192.95 610.23 190.65C613.996 191.283 615.88 192.517 615.88 194.35C615.88 195.717 614.93 198.617 613.03 203.05C611.163 207.45 608.896 212.533 606.23 218.3C603.596 224.033 601.78 228.267 600.78 231ZM631.286 218.7C629.686 218.7 628.12 218.517 626.586 218.15C626.553 218.483 626.536 219 626.536 219.7C626.536 222.467 627.053 224.55 628.086 225.95C629.12 227.35 630.353 228.05 631.786 228.05C633.22 228.05 634.586 227.617 635.886 226.75C637.186 225.883 638.32 224.683 639.286 223.15C640.486 223.417 641.086 224.033 641.086 225C638.153 229.5 634.37 231.75 629.736 231.75C626.936 231.75 624.486 230.683 622.386 228.55C620.286 226.383 619.236 223.383 619.236 219.55C619.236 216.683 619.786 213.967 620.886 211.4C621.986 208.8 623.736 206.617 626.136 204.85C628.536 203.05 631.186 202.15 634.086 202.15C637.02 202.15 639.17 202.817 640.536 204.15C641.903 205.483 642.586 207.233 642.586 209.4C642.586 212.533 641.486 214.867 639.286 216.4C637.12 217.933 634.453 218.7 631.286 218.7ZM633.386 205.25C631.686 205.25 630.253 206.3 629.086 208.4C627.92 210.5 627.153 213.05 626.786 216.05H627.536C630.436 216.05 632.57 215.3 633.936 213.8C635.336 212.3 636.036 210.5 636.036 208.4C636.036 207.533 635.803 206.8 635.336 206.2C634.903 205.567 634.253 205.25 633.386 205.25ZM658.515 207.5C658.348 208.7 657.998 210.783 657.465 213.75C656.332 220.05 655.765 224.717 655.765 227.75C655.765 230.783 655.998 232.817 656.465 233.85C653.898 233.183 652.132 232.167 651.165 230.8C650.198 229.4 649.715 227.433 649.715 224.9C649.715 222.667 650.065 219.617 650.765 215.75C651.465 211.85 651.915 209.217 652.115 207.85C650.382 208.15 648.532 208.733 646.565 209.6C646.498 208.867 646.465 208.317 646.465 207.95C646.465 206.183 646.998 204.983 648.065 204.35C649.132 203.683 650.665 203.333 652.665 203.3C652.898 200.8 653.015 199 653.015 197.9C653.015 196.8 652.998 195.883 652.965 195.15C652.965 194.417 652.965 193.867 652.965 193.5C655.165 193.733 656.765 194.4 657.765 195.5C658.765 196.567 659.265 198.1 659.265 200.1C659.265 200.9 659.182 202.017 659.015 203.45C661.815 203.383 663.865 202.833 665.165 201.8C665.232 202.467 665.265 202.967 665.265 203.3C665.265 204.9 664.982 206.017 664.415 206.65C663.848 207.25 662.898 207.55 661.565 207.55C660.232 207.55 659.215 207.533 658.515 207.5ZM678.552 218.7C676.952 218.7 675.385 218.517 673.852 218.15C673.819 218.483 673.802 219 673.802 219.7C673.802 222.467 674.319 224.55 675.352 225.95C676.385 227.35 677.619 228.05 679.052 228.05C680.485 228.05 681.852 227.617 683.152 226.75C684.452 225.883 685.585 224.683 686.552 223.15C687.752 223.417 688.352 224.033 688.352 225C685.419 229.5 681.635 231.75 677.002 231.75C674.202 231.75 671.752 230.683 669.652 228.55C667.552 226.383 666.502 223.383 666.502 219.55C666.502 216.683 667.052 213.967 668.152 211.4C669.252 208.8 671.002 206.617 673.402 204.85C675.802 203.05 678.452 202.15 681.352 202.15C684.285 202.15 686.435 202.817 687.802 204.15C689.169 205.483 689.852 207.233 689.852 209.4C689.852 212.533 688.752 214.867 686.552 216.4C684.385 217.933 681.719 218.7 678.552 218.7ZM680.652 205.25C678.952 205.25 677.519 206.3 676.352 208.4C675.185 210.5 674.419 213.05 674.052 216.05H674.802C677.702 216.05 679.835 215.3 681.202 213.8C682.602 212.3 683.302 210.5 683.302 208.4C683.302 207.533 683.069 206.8 682.602 206.2C682.169 205.567 681.519 205.25 680.652 205.25ZM702.83 214.75C704.03 210.417 705.464 207.233 707.13 205.2C708.83 203.133 710.397 202.1 711.83 202.1C713.297 202.1 714.397 202.65 715.13 203.75C715.864 204.817 716.23 206.217 716.23 207.95C716.23 209.65 715.714 211.217 714.68 212.65C713.68 214.083 712.297 214.8 710.53 214.8C710.064 214.8 709.514 214.667 708.88 214.4C709.914 213.1 710.43 211.533 710.43 209.7C710.43 208.633 709.997 208.1 709.13 208.1C708.497 208.1 707.814 208.55 707.08 209.45C706.347 210.317 705.647 211.533 704.98 213.1C704.314 214.633 703.747 216.617 703.28 219.05C702.847 221.45 702.63 224.017 702.63 226.75C702.63 227.083 702.714 228.5 702.88 231C701.814 231.067 701.13 231.1 700.83 231.1C698.93 231.1 697.564 230.767 696.73 230.1C695.897 229.433 695.48 228.333 695.48 226.8C695.48 226.133 695.83 223.567 696.53 219.1C697.23 214.633 697.58 211.083 697.58 208.45C697.58 205.783 697.297 203.333 696.73 201.1C699.164 201.867 700.864 202.967 701.83 204.4C702.797 205.8 703.28 207.45 703.28 209.35C703.28 211.217 703.13 213.017 702.83 214.75ZM727.975 206.15C727.975 206.65 727.558 209.283 726.725 214.05C725.925 218.783 725.508 222.7 725.475 225.8C725.475 228.867 725.675 230.85 726.075 231.75C723.475 231.083 721.725 230.083 720.825 228.75C719.925 227.383 719.475 225.4 719.475 222.8C719.475 221.4 719.742 218.867 720.275 215.2C720.808 211.533 721.075 208.683 721.075 206.65C721.075 204.617 720.975 203.05 720.775 201.95C721.508 201.883 722.192 201.85 722.825 201.85C724.758 201.85 726.092 202.183 726.825 202.85C727.592 203.483 727.975 204.583 727.975 206.15ZM728.725 197.45C727.792 197.583 726.975 197.65 726.275 197.65C722.842 197.65 721.125 196.45 721.125 194.05C721.125 193.183 721.375 192 721.875 190.5C722.808 190.367 723.625 190.3 724.325 190.3C727.758 190.3 729.475 191.5 729.475 193.9C729.475 194.767 729.225 195.95 728.725 197.45ZM753.589 202.15C755.556 202.15 756.956 202.767 757.789 204C758.656 205.2 759.089 206.85 759.089 208.95C759.089 211.017 758.756 213.933 758.089 217.7C757.456 221.467 757.139 224.217 757.139 225.95C757.139 227.65 757.356 228.9 757.789 229.7C758.223 230.467 758.956 231.133 759.989 231.7C759.556 231.733 758.939 231.75 758.139 231.75C755.339 231.75 753.339 231.317 752.139 230.45C750.973 229.583 750.389 228.067 750.389 225.9C750.389 224.667 750.723 222.267 751.389 218.7C752.056 215.1 752.389 212.417 752.389 210.65C752.389 208.45 751.723 207.35 750.389 207.35C749.623 207.35 748.756 207.8 747.789 208.7C746.823 209.6 745.889 210.833 744.989 212.4C744.089 213.933 743.339 215.917 742.739 218.35C742.139 220.783 741.839 223.217 741.839 225.65C741.839 228.05 741.939 229.833 742.139 231C741.073 231.067 740.373 231.1 740.039 231.1C738.139 231.1 736.773 230.767 735.939 230.1C735.106 229.433 734.689 228.333 734.689 226.8C734.689 226.133 735.039 223.567 735.739 219.1C736.439 214.633 736.789 211.083 736.789 208.45C736.789 205.783 736.506 203.333 735.939 201.1C738.373 201.867 740.073 202.967 741.039 204.4C742.006 205.8 742.489 207.417 742.489 209.25C742.489 211.05 742.289 213.15 741.889 215.55C742.989 211.817 744.723 208.65 747.089 206.05C749.456 203.45 751.623 202.15 753.589 202.15ZM776.488 198.4C777.388 196.367 778.822 194.267 780.788 192.1C782.755 189.9 784.672 188.417 786.538 187.65C788.538 188.917 789.588 190.7 789.688 193C787.588 193.567 785.522 194.533 783.488 195.9C781.488 197.233 779.855 198.617 778.588 200.05C778.055 199.95 777.588 199.75 777.188 199.45C776.788 199.117 776.555 198.767 776.488 198.4ZM771.788 221.55C771.788 223.117 772.072 224.4 772.638 225.4C773.238 226.367 774.072 226.85 775.138 226.85C776.705 226.85 778.188 225.933 779.588 224.1C781.022 222.267 782.155 219.917 782.988 217.05C783.855 214.183 784.288 211.467 784.288 208.9C784.288 206.3 784.188 204.2 783.988 202.6C784.988 202.533 785.688 202.5 786.088 202.5C787.788 202.5 789.072 202.817 789.938 203.45C790.805 204.083 791.238 205.217 791.238 206.85C791.238 207.483 790.838 210.067 790.038 214.6C789.238 219.1 788.838 222.717 788.838 225.45C788.838 228.15 789.355 230.55 790.388 232.65C787.888 232.217 786.055 231.3 784.888 229.9C783.722 228.467 783.138 226.417 783.138 223.75C783.138 223.283 783.205 222.383 783.338 221.05C782.438 224.217 780.838 226.767 778.538 228.7C776.238 230.633 773.972 231.6 771.738 231.6C769.538 231.6 767.755 230.783 766.388 229.15C765.055 227.483 764.388 225.133 764.388 222.1C764.388 219.067 764.922 216.133 765.988 213.3C767.088 210.433 768.722 208.017 770.888 206.05C773.055 204.05 775.472 203.05 778.138 203.05C779.672 203.05 781.238 203.417 782.838 204.15C779.472 205.35 776.788 207.717 774.788 211.25C772.788 214.75 771.788 218.183 771.788 221.55ZM805.077 214.75C806.277 210.417 807.71 207.233 809.377 205.2C811.077 203.133 812.643 202.1 814.077 202.1C815.543 202.1 816.643 202.65 817.377 203.75C818.11 204.817 818.477 206.217 818.477 207.95C818.477 209.65 817.96 211.217 816.927 212.65C815.927 214.083 814.543 214.8 812.777 214.8C812.31 214.8 811.76 214.667 811.127 214.4C812.16 213.1 812.677 211.533 812.677 209.7C812.677 208.633 812.243 208.1 811.377 208.1C810.743 208.1 810.06 208.55 809.327 209.45C808.593 210.317 807.893 211.533 807.227 213.1C806.56 214.633 805.993 216.617 805.527 219.05C805.093 221.45 804.877 224.017 804.877 226.75C804.877 227.083 804.96 228.5 805.127 231C804.06 231.067 803.377 231.1 803.077 231.1C801.177 231.1 799.81 230.767 798.977 230.1C798.143 229.433 797.727 228.333 797.727 226.8C797.727 226.133 798.077 223.567 798.777 219.1C799.477 214.633 799.827 211.083 799.827 208.45C799.827 205.783 799.543 203.333 798.977 201.1C801.41 201.867 803.11 202.967 804.077 204.4C805.043 205.8 805.527 207.45 805.527 209.35C805.527 211.217 805.377 213.017 805.077 214.75ZM830.221 206.15C830.221 206.65 829.804 209.283 828.971 214.05C828.171 218.783 827.754 222.7 827.721 225.8C827.721 228.867 827.921 230.85 828.321 231.75C825.721 231.083 823.971 230.083 823.071 228.75C822.171 227.383 821.721 225.4 821.721 222.8C821.721 221.4 821.988 218.867 822.521 215.2C823.054 211.533 823.321 208.683 823.321 206.65C823.321 204.617 823.221 203.05 823.021 201.95C823.754 201.883 824.438 201.85 825.071 201.85C827.004 201.85 828.338 202.183 829.071 202.85C829.838 203.483 830.221 204.583 830.221 206.15ZM830.971 197.45C830.038 197.583 829.221 197.65 828.521 197.65C825.088 197.65 823.371 196.45 823.371 194.05C823.371 193.183 823.621 192 824.121 190.5C825.054 190.367 825.871 190.3 826.571 190.3C830.004 190.3 831.721 191.5 831.721 193.9C831.721 194.767 831.471 195.95 830.971 197.45ZM842.736 221.55C842.736 223.117 843.019 224.4 843.586 225.4C844.186 226.367 845.019 226.85 846.086 226.85C847.652 226.85 849.136 225.933 850.536 224.1C851.969 222.267 853.102 219.917 853.936 217.05C854.802 214.183 855.236 211.467 855.236 208.9C855.236 206.3 855.136 204.2 854.936 202.6C855.936 202.533 856.636 202.5 857.036 202.5C858.736 202.5 860.019 202.817 860.886 203.45C861.752 204.083 862.186 205.217 862.186 206.85C862.186 207.483 861.786 210.067 860.986 214.6C860.186 219.1 859.786 222.717 859.786 225.45C859.786 228.15 860.302 230.55 861.336 232.65C858.836 232.217 857.002 231.3 855.836 229.9C854.669 228.467 854.086 226.417 854.086 223.75C854.086 223.283 854.152 222.383 854.286 221.05C853.386 224.217 851.786 226.767 849.486 228.7C847.186 230.633 844.919 231.6 842.686 231.6C840.486 231.6 838.702 230.783 837.336 229.15C836.002 227.483 835.336 225.133 835.336 222.1C835.336 219.067 835.869 216.133 836.936 213.3C838.036 210.433 839.669 208.017 841.836 206.05C844.002 204.05 846.419 203.05 849.086 203.05C850.619 203.05 852.186 203.417 853.786 204.15C850.419 205.35 847.736 207.717 845.736 211.25C843.736 214.75 842.736 218.183 842.736 221.55Z" fill="#0DADC5"/>
<circle cx="181" cy="125" r="125" fill="#1A3968"/>
<ellipse cx="164.5" cy="125" rx="108.5" ry="114" fill="#F5F5F5"/>
<ellipse cx="163.5" cy="126" rx="104.5" ry="111" fill="#0DADC5"/>
<ellipse cx="98.5" cy="103" rx="98.5" ry="103" transform="matrix(-1 0 0 1 272 23)" fill="#F5F5F5"/>
<mask id="mask0_1_113" style="mask-type:alpha" maskUnits="userSpaceOnUse" x="31" y="97" width="121" height="175">
<path d="M98.3622 98.925C96.9241 100.815 94.9587 105.127 94.4794 107.501C94.2876 108.422 93.3768 112.347 92.4181 116.223C90.7883 122.764 90.6924 123.781 90.6924 130.759C90.6444 137.445 90.7883 138.802 91.9867 143.066C94.0959 150.77 93.6165 155.325 90.213 160.558C89.2064 162.011 88.1038 164.046 87.6724 165.015C87.2889 166.033 86.7137 167.002 86.3781 167.196C85.4673 167.826 81.3448 168.94 75.113 170.248C61.4511 173.155 55.4591 176.063 46.1594 184.154C39.5441 189.92 34.3191 197.188 32.3537 203.439C30.2445 209.931 30.6759 230.379 33.1206 243.897C35.2299 255.381 37.8664 259.499 45.5362 263.278C55.6508 268.221 73.8187 270.837 84.4127 268.899C87.3368 268.318 88.0079 268.366 89.5419 268.996C90.5006 269.432 93.6644 270.256 96.4927 270.886C101.095 271.855 102.964 272 113.175 272C123.864 272 124.919 271.903 128.179 270.886C130.432 270.159 132.301 269.19 133.452 268.172C134.986 266.719 135.177 266.283 135.177 264.151C135.177 260.42 132.637 257.561 127.699 255.72C126.693 255.381 125.878 254.944 125.878 254.751C125.878 254.605 126.117 253.249 126.357 251.843C126.645 250.39 127.172 243.655 127.556 236.871C127.939 230.088 128.466 223.692 128.754 222.723C129.185 221.269 129.904 220.446 132.157 218.944C137.67 215.116 140.498 211.094 141.697 205.231C142.176 202.906 142.368 202.518 142.943 203.003C143.998 203.875 144.333 202.373 144.285 196.655C144.237 192.246 143.998 190.792 142.416 185.511L140.642 179.454L140.882 171.702C141.026 166.711 141.409 163.077 141.889 161.527C142.272 160.17 144.333 156.245 146.395 152.757C150.565 145.731 151.859 142.291 151.907 138.124C151.955 133.278 151.044 130.662 147.929 126.979C146.395 125.138 144.909 123.152 144.621 122.619C144.333 122.086 144.094 119.76 144.094 117.434C144.094 113.219 143.423 110.796 142.032 110.263C141.074 109.875 138.773 111.135 135.944 113.606C134.267 115.011 133.164 115.69 132.637 115.496C129.665 114.333 125.974 113.8 120.605 113.8H114.613L112.264 110.021C107.326 102.171 105.457 99.6033 103.827 98.4889C101.478 96.8415 99.8483 96.9869 98.3622 98.925Z" fill="#0DADC5"/>
</mask>
<g mask="url(#mask0_1_113)">
<circle cx="174.748" cy="128.253" r="100.758" fill="#0DADC5"/>
</g>
<mask id="mask1_1_113" style="mask-type:alpha" maskUnits="userSpaceOnUse" x="152" y="59" width="214" height="215">
<path d="M200.726 59.7454C198.806 60.1892 195.806 60.9559 194.127 61.5208C192.167 62.1664 189.687 62.6102 187.488 62.7313C183.208 62.9734 180.889 63.9821 177.129 67.3715C175.369 68.9048 173.65 69.9943 171.97 70.6399C167.251 72.4153 163.251 74.7152 161.571 76.652C157.852 80.9291 154.132 89.3623 153.173 95.778C152.493 100.176 153.133 104.857 155.052 108.892C157.772 114.783 158.012 115.872 158.012 121.965C158.012 127.856 158.292 128.784 160.052 128.784C162.611 128.784 165.611 125.839 168.33 120.714C170.25 117.083 171.01 114.339 171.61 108.408C172.29 101.508 174.05 95.6166 176.209 93.0745L176.889 92.2675L176.609 93.0745C174.769 98.8042 174.409 103.808 175.449 110.143C175.889 112.886 176.089 117.204 176.129 124.749L176.209 135.442L174.809 140.889C173.25 147.063 173.09 150.412 174.17 153.64C175.369 157.272 178.689 159.814 183.008 160.459C184.328 160.661 185.448 161.145 186.328 161.912C190.287 165.422 197.566 166.915 202.925 165.342C205.245 164.656 209.204 162.396 210.884 160.782L211.964 159.773L212.164 161.105C212.284 161.871 212.484 163.485 212.604 164.736C212.924 167.601 213.404 169.296 216.043 175.994L218.163 181.441L218.443 195.362C218.603 203.028 218.883 215.093 219.043 222.195C219.363 236.519 219.003 241.321 217.443 245.517C215.843 249.794 213.964 253.466 213.164 253.87C212.764 254.112 211.204 254.394 209.684 254.556C207.005 254.757 207.005 254.798 204.525 257.38C200.966 261.052 201.206 262.505 205.565 264.119C208.844 265.289 223.962 265.813 226.322 264.804C227.922 264.119 229.361 261.778 230.161 258.51C230.481 257.178 231.281 254.273 231.921 252.054C232.601 249.835 233.321 246.929 233.601 245.598C233.841 244.266 235.641 236.438 237.6 228.247C239.88 218.684 241.32 211.784 241.56 209.081C241.8 206.741 242.28 202.867 242.64 200.486C243.279 196.33 243.359 196.129 244.159 196.371C244.959 196.572 259.157 198.025 263.197 198.267L264.996 198.388L265.116 201.616C265.276 205.732 264.716 209.444 262.717 216.748C260.237 225.826 259.637 229.538 259.197 238.294C258.757 246.849 258.637 247.736 256.757 252.619C255.798 255.201 255.158 256.129 253.278 257.945C250.758 260.326 249.079 263.675 247.679 269.001C247.079 271.382 247.079 271.745 247.599 272.753C248.359 274.085 250.358 274.408 251.838 273.439C252.678 272.915 253.118 272.874 254.078 273.197C256.158 273.924 260.037 273.762 261.517 272.834C262.237 272.39 262.917 271.785 263.037 271.503C263.197 271.059 263.636 271.059 265.596 271.543C266.876 271.866 268.396 272.027 268.956 271.866C270.276 271.543 272.275 269.768 272.635 268.678C272.755 268.194 273.395 266.983 274.035 265.975C274.915 264.522 275.315 263.19 275.795 259.72C276.515 254.556 277.394 251.287 280.074 243.58C283.554 233.654 284.313 230.063 284.633 221.67C284.793 217.595 285.033 214.205 285.193 214.125C285.553 213.923 288.713 219.491 289.433 221.59C290.833 225.665 290.393 238.738 288.753 243.217C288.273 244.428 287.033 246.364 285.793 247.817C282.994 250.964 282.114 252.699 281.554 256.291C280.994 259.962 281.474 261.254 283.714 262.343C286.673 263.796 288.553 263.231 290.433 260.326L291.112 259.317L291.992 260.406C292.472 261.052 293.232 261.536 293.752 261.536C294.352 261.536 294.992 262.02 295.632 263.029C296.992 265.127 298.751 266.055 301.991 266.297C304.631 266.459 304.711 266.459 305.63 265.208C306.31 264.28 306.87 263.957 307.83 263.957C310.27 263.957 312.229 261.415 313.389 256.775C313.709 255.524 314.349 251.005 314.789 246.808C315.269 242.572 315.909 237.851 316.229 236.317C319.828 219.612 320.028 218.24 319.828 214.327C319.668 211.381 319.268 209.323 318.069 205.449C313.269 190.197 313.749 180.029 319.708 168.126C322.148 163.284 322.188 157.877 319.868 151.098C319.148 148.919 318.389 146.861 318.229 146.498C318.029 146.014 319.588 145.086 326.347 141.777C330.987 139.517 334.826 137.661 334.946 137.661C335.666 137.661 357.343 126.041 359.783 124.305C365.742 120.19 366.981 116.276 362.382 116.276C359.543 116.276 345.145 120.916 329.187 126.928C318.628 130.963 318.429 131.004 314.229 132.214C309.59 133.546 308.27 133.505 306.43 132.053C304.431 130.439 299.431 127.332 294.712 124.79C290.673 122.611 278.274 116.841 274.355 115.307C272.715 114.702 271.195 113.572 268.716 111.232C266.836 109.457 264.036 107.076 262.477 105.987C260.517 104.655 259.637 103.808 259.757 103.404C260.717 99.8937 260.197 94.8903 258.517 91.2991C257.917 90.0483 256.398 87.9501 255.038 86.5378C253.678 85.2063 251.998 83.0273 251.278 81.6958C248.119 76.0468 242.76 71.003 234.401 65.9189C225.522 60.4717 210.204 57.6471 200.726 59.7454ZM300.831 202.06C302.111 205.288 303.311 210.049 303.071 211.058C302.991 211.421 302.231 210.251 301.231 208.314C299.511 204.885 297.991 199.881 297.991 197.622V196.371L298.831 197.783C299.311 198.55 300.191 200.486 300.831 202.06Z" fill="#1A3968"/>
</mask>
<g mask="url(#mask1_1_113)">
<circle cx="163.657" cy="128.909" r="110.162" fill="#1A3968"/>
</g>
</svg>
