<?xml version="1.0" ?><svg style="enable-background:new 0 0 512 512;" version="1.1" viewBox="0 0 512 512" xml:space="preserve" xmlns="http://www.w3.org/2000/svg" xmlns:xlink="http://www.w3.org/1999/xlink"><g id="_x33_9_x2C__Blood_x2C__bottle_x2C__packet"><g id="XMLID_4175_"><g id="XMLID_4176_"><rect height="90" id="XMLID_1122_" style="fill:#D94556;" width="30" x="233.5" y="395"/><path d="M288.5,366v16c0,7.73-6.27,14-14,14h-11h-30h-11c-7.73,0-14-6.27-14-14v-16     H288.5z" id="XMLID_1121_" style="fill:#CD2738;"/><path d="M373.5,330c0,20.43-16.57,37-37,37c-52.857,0-117.21,0-176,0     c-20.43,0-37-16.57-37-37c0-19.723,0-152.291,0-173c0.123,0,238.139,0,250,0C373.5,196.783,373.5,284.213,373.5,330z" id="XMLID_1120_" style="fill:#D94556;"/><path d="M58.5,367c13.81,0,25,11.19,25,25s-11.19,25-25,25s-25-11.19-25-25     S44.69,367,58.5,367z" id="XMLID_1119_" style="fill:#9BD8F9;"/><circle cx="438.5" cy="107" id="XMLID_1118_" r="40" style="fill:#9BD8F9;"/><path d="M373.5,94v33c-53.29,0-195.956,0-250,0V94c0-20.43,16.57-37,37-37H224     c-0.33-1.62-0.5-3.29-0.5-5c0-13.81,11.19-25,25-25c13.81,0,25,11.19,25,25c0,1.71-0.17,3.38-0.5,5h63.5     C356.93,57,373.5,73.57,373.5,94z" id="XMLID_1117_" style="fill:#D0DCE7;"/><path d="M123.5,127v30c7.064,0,242.933,0,250,0v-30C365.796,127,130.502,127,123.5,127z" id="XMLID_1116_" style="fill:#A0B5C5;"/><path d="M308.5,312h-120c0-8.702,0-176.366,0-185h120     C308.5,135.635,308.5,303.298,308.5,312z" id="XMLID_4253_" style="fill:#D0DCE7;"/><path d="M248.5,172c0,0,26.33,23.83,25,50c-0.7,13.79-11.19,25-25,25     c-13.81,0-25.13-11.19-25-25C223.75,195.25,248.5,172,248.5,172z" id="XMLID_1114_" style="fill:#D94556;"/><circle cx="443.5" cy="214.5" id="XMLID_1113_" r="7.5" style="fill:#FFD400;"/><circle cx="421" cy="384.5" id="XMLID_1112_" r="7.5" style="fill:#FFD400;"/><circle cx="333.5" cy="439.5" id="XMLID_1111_" r="7.5" style="fill:#FFD400;"/><circle cx="166" cy="429.5" id="XMLID_1110_" r="7.5" style="fill:#FFD400;"/><circle cx="86" cy="249.5" id="XMLID_1109_" r="7.5" style="fill:#FFD400;"/><circle cx="51" cy="99.5" id="XMLID_1108_" r="7.5" style="fill:#FFD400;"/><path d="M343.5,277c0,2.762,2.239,5,5,5h25c0-3.294,0-6.631,0-10h-25     C345.739,272,343.5,274.238,343.5,277z" id="XMLID_1107_" style="fill:#CD2738;"/><path d="M333.5,252c0,2.762,2.239,5,5,5h35c0-3.327,0-6.664,0-10h-35     C335.739,247,333.5,249.239,333.5,252z" id="XMLID_1106_" style="fill:#CD2738;"/><path d="M343.5,227c0,2.761,2.239,5,5,5h25c0-3.358,0-6.694,0-10h-25     C345.739,222,343.5,224.239,343.5,227z" id="XMLID_1105_" style="fill:#CD2738;"/><path d="M333.5,202c0,2.761,2.239,5,5,5h35c0-3.396,0-6.736,0-10h-35     C335.739,197,333.5,199.239,333.5,202z" id="XMLID_1104_" style="fill:#CD2738;"/><path d="M153.5,277c0-2.762-2.239-5-5-5h-25c0,3.403,0,6.744,0,10h25     C151.261,282,153.5,279.762,153.5,277z" id="XMLID_1103_" style="fill:#CD2738;"/><path d="M163.5,252c0-2.761-2.239-5-5-5h-35c0,3.347,0,6.686,0,10h35     C161.261,257,163.5,254.762,163.5,252z" id="XMLID_1102_" style="fill:#CD2738;"/><path d="M153.5,227c0-2.761-2.239-5-5-5h-25c0,3.298,0,6.638,0,10h25     C151.261,232,153.5,229.761,153.5,227z" id="XMLID_1101_" style="fill:#CD2738;"/><path d="M163.5,202c0-2.761-2.239-5-5-5h-35c0,3.23,0,6.571,0,10h35     C161.261,207,163.5,204.761,163.5,202z" id="XMLID_1100_" style="fill:#CD2738;"/></g></g></g><g id="Layer_1"/></svg>